<svg width="1823" height="1385" viewBox="0 0 1823 1385" fill="none" xmlns="http://www.w3.org/2000/svg">
<rect width="1823" height="1385" fill="#646363" fill-opacity="0.41"/>
<path d="M743.001 729.9L743.301 724.6L748.001 724.1C754.101 723.4 756.401 721.1 758.801 713.4L760.701 707.1L757.901 697.4C749.001 666.8 745.301 654.5 742.201 644.7C740.301 638.7 738.801 633.4 738.801 632.9C738.801 632.5 741.901 632.1 745.701 632.1H752.601L759.601 660.4C763.501 675.9 766.701 688.4 766.801 688.1C767.301 684.9 780.101 636 780.801 634.4C781.601 632.4 782.501 632.1 787.601 632.1C790.801 632.1 793.701 632.3 794.001 632.7C794.301 633 793.201 637.6 791.601 642.9C790.001 648.2 784.501 667.3 779.301 685.3C774.101 703.2 768.801 720.1 767.401 722.8C762.901 731.8 757.601 735.1 748.201 735.1H742.701L743.001 729.9Z" fill="#010101"/>
<path d="M622.901 708.3C620.001 707.2 616.401 705.5 614.901 704.4C611.201 701.6 606.101 692.8 604.801 686.7C603.101 678.9 602.401 651.2 603.601 636.8C604.501 625.9 605.201 622.9 607.701 617.5C610.101 612.4 611.601 610.5 615.501 608.1C622.101 603.9 626.901 602.8 636.801 603.3C643.801 603.6 646.201 604.2 650.501 606.5C658.901 611.1 663.201 619.1 663.901 631.7L664.301 637.6H657.801H651.301L650.601 631.3C649.301 619.1 644.501 614.1 634.301 614.1C627.201 614.1 622.801 616.7 619.801 622.7C617.301 627.6 617.301 627.7 617.301 656.1C617.301 684.5 617.301 684.6 619.801 689.5C623.401 696.7 626.201 698.4 634.301 698.4C645.001 698.4 648.901 694.2 650.901 680.8L652.101 673L658.201 673.3L664.301 673.6L664.001 679.6C663.201 698.7 653.901 708.9 636.401 709.8C630.201 710.1 627.101 709.7 622.901 708.3Z" fill="#010101"/>
<path d="M695.001 708.2C688.101 705.8 683.301 701.1 680.701 694.2C678.801 689.3 678.501 686.4 678.501 671.6C678.401 650.3 679.701 644.9 686.601 638C691.901 632.7 696.201 631.1 705.401 631.1C712.801 631.1 717.601 632.9 722.101 637.5C727.001 642.4 728.901 648.7 729.501 661.9L730.101 673.1H710.301H690.501L691.101 680.6C692.201 692.9 695.201 697.5 703.001 698.7C710.001 699.9 716.801 694.2 716.801 687.2C716.801 685.3 717.401 685.1 722.701 685.1C726.001 685.1 729.001 685.6 729.301 686.1C729.701 686.7 729.201 689.6 728.301 692.7C724.201 706.8 710.001 713.4 695.001 708.2ZM714.801 658.5C714.801 654.8 712.301 648.8 710.001 647C706.601 644.4 702.501 644.6 698.901 647.7C696.201 649.9 693.801 655.2 693.801 658.9C693.801 659.8 696.601 660.1 704.301 660.1C713.301 660.1 714.801 659.9 714.801 658.5Z" fill="#010101"/>
<path d="M854.701 709.2C841.701 705 836.901 696.5 836.101 676.1C834.801 645.3 841.901 632.2 860.501 631.2C864.601 631 869.901 631.4 872.301 632.1C878.301 633.8 884.101 639 886.701 645C891.401 656 891.601 685 887.001 695.3C883.001 704.3 875.201 709.2 864.301 709.7C860.501 709.9 856.101 709.7 854.701 709.2ZM868.701 693.5C873.501 689.5 875.101 682.5 874.601 667.7C874.201 654.1 872.601 649.1 867.701 646.6C861.601 643.4 856.301 645.9 853.301 653.3C851.901 656.6 851.501 660.5 851.601 670.6C851.601 685.7 853.101 691.1 858.201 694.2C862.401 696.8 865.101 696.6 868.701 693.5Z" fill="#010101"/>
<path d="M1047.5 708.6C1039 705.6 1035.3 698.7 1036 686.7C1036.3 680.3 1036.8 678.6 1039.4 674.9C1044.6 667.5 1052.9 663.6 1068.1 661.6L1072.8 661V655.9C1072.8 653.2 1072.1 649.4 1071.2 647.6C1068.7 642.3 1060.5 640.4 1054.7 643.8C1052.2 645.3 1051.2 646.9 1049.4 652.4C1049 653.8 1047.7 654.1 1042.9 654.1H1036.9L1037.5 650.4C1039.4 638.4 1048.6 631.1 1062 631.1C1072.2 631.1 1079.6 635.3 1083.1 643C1085 647.2 1085.3 650.2 1085.9 675.1C1086.3 690.2 1086.9 703.8 1087.3 705.4L1088 708.1H1081.5C1074.5 708.1 1073.8 707.5 1073.8 702.3V699.7L1070.1 703.3C1063.4 709.8 1055.7 711.6 1047.5 708.6ZM1064.1 692.9C1068 690.1 1069.8 686 1069.8 679.6C1069.8 676.6 1069.7 674.1 1069.6 674.1C1067.1 674.2 1058.2 677.4 1056 679C1049.9 683.3 1049.4 690.7 1055 694C1058.3 696.1 1059.7 695.9 1064.1 692.9Z" fill="#010101"/>
<path d="M1126 708.8C1124.2 708.2 1121.3 706.5 1119.6 704.9C1118 703.4 1116.4 702.1 1116.2 702.1C1116 702.1 1115.8 703.5 1115.8 705.1V708.1H1109.8H1103.8L1104 655.9L1104.3 603.6L1110.6 603.3L1116.8 603V621.7V640.4L1119 637.6C1123.8 631.5 1135.3 629.3 1143.5 633C1148.5 635.3 1152 640.3 1154.4 648.6C1156.7 656.3 1156.9 680.5 1154.9 690C1151.5 705.4 1139.6 713.2 1126 708.8ZM1135.2 693.2C1139.6 689.3 1140.3 686.3 1140.3 670.6C1140.3 653.3 1139.1 649.2 1133.1 646.3C1130 644.8 1129.4 644.8 1127 646.2C1125.5 647 1123.3 649.4 1122.1 651.6C1120 655.3 1119.8 656.9 1119.8 670.9C1119.8 688 1120.5 690.8 1126.1 694.1C1129.5 696.2 1132.1 696 1135.2 693.2Z" fill="#010101"/>
<path d="M1185.3 708.8C1179 706.7 1176.9 705.3 1173.8 701C1171.3 697.4 1167.9 686.6 1169 685.5C1169.3 685.3 1172 684.8 1175 684.5L1180.6 683.9L1181.8 688.9C1183.5 696.4 1186.5 698.6 1194.4 698.6C1199.9 698.6 1201.1 698.2 1203.4 696C1204.9 694.4 1206.2 691.8 1206.5 689.5C1206.9 686.1 1206.6 685 1204.2 682.2C1202.7 680.4 1199.4 678 1196.9 676.9C1181.2 670.2 1175.6 666.5 1172.9 660.9C1171.8 658.5 1170.8 654.7 1170.8 652.4C1170.8 639.4 1179.9 631.1 1194.2 631.1C1207.7 631.2 1215.8 637.6 1217.5 649.6L1218.1 654.1H1212.9C1210.1 654.1 1207.5 654.2 1207.1 654.4C1206.7 654.5 1206.2 653.7 1206 652.6C1204.8 645.3 1201 642.1 1193.5 642.1C1187.3 642.1 1183.8 645.4 1183.8 651.2C1183.8 656.8 1187.8 660.5 1198.5 664.9C1213.8 671.1 1218.8 676.8 1218.8 688.1C1218.8 697.1 1215.1 703.3 1207.4 707.3C1202.5 709.8 1190.8 710.6 1185.3 708.8Z" fill="#010101"/>
<path d="M806.801 655.6V603.1H813.301H819.801V655.6V708.1H813.301H806.801V655.6Z" fill="#010101"/>
<path d="M906.801 670.1V632L912.601 632.3L918.301 632.6L918.801 636.9L919.301 641.3L921.601 638.1C924.801 633.8 931.001 631.1 937.801 631.1C944.901 631.1 950.401 634.1 953.201 639.6C955.201 643.4 955.301 645.4 955.601 675.9L955.901 708.1H949.901H943.901L943.601 678.4C943.301 645.1 943.201 644.9 936.501 642.9C931.101 641.3 925.201 643.4 922.101 648C919.801 651.3 919.801 651.9 919.801 679.7V708.1H913.301H906.801V670.1Z" fill="#010101"/>
<path d="M977.001 656.4L977.301 604.6L983.501 604.3L989.801 604L990.001 650.3L990.301 696.6L1009.1 696.9L1027.8 697.1V702.6V708.1H1002.3H976.801L977.001 656.4Z" fill="#010101"/>
</svg>
