<svg width="1823" height="1385" viewBox="0 0 1823 1385" fill="none" xmlns="http://www.w3.org/2000/svg">
<rect width="1823" height="1385" fill="#010101"/>
<path d="M743.2 739.8L743.5 734.5L748.2 734C754.3 733.3 756.6 731 759 723.3L760.9 717L758.1 707.3C749.2 676.7 745.5 664.4 742.4 654.6C740.5 648.6 739 643.3 739 642.8C739 642.4 742.1 642 745.9 642H752.8L759.8 670.3C763.7 685.8 766.9 698.3 767 698C767.5 694.8 780.3 645.9 781 644.3C781.8 642.3 782.7 642 787.8 642C791 642 793.9 642.2 794.2 642.6C794.5 642.9 793.4 647.5 791.8 652.8C790.2 658.1 784.7 677.2 779.5 695.2C774.3 713.1 769 730 767.6 732.7C763.1 741.7 757.8 745 748.4 745H742.9L743.2 739.8Z" fill="#FFFEFE"/>
<path d="M623.1 718.2C620.2 717.1 616.6 715.4 615.1 714.3C611.4 711.5 606.3 702.7 605 696.6C603.3 688.8 602.6 661.1 603.8 646.7C604.7 635.8 605.4 632.8 607.9 627.4C610.3 622.3 611.8 620.4 615.7 618C622.3 613.8 627.1 612.7 637 613.2C644 613.5 646.4 614.1 650.7 616.4C659.1 621 663.4 629 664.1 641.6L664.5 647.5H658H651.5L650.8 641.2C649.5 629 644.7 624 634.5 624C627.4 624 623 626.6 620 632.6C617.5 637.5 617.5 637.6 617.5 666C617.5 694.4 617.5 694.5 620 699.4C623.6 706.6 626.4 708.3 634.5 708.3C645.2 708.3 649.1 704.1 651.1 690.7L652.3 682.9L658.4 683.2L664.5 683.5L664.2 689.5C663.4 708.6 654.1 718.8 636.6 719.7C630.4 720 627.3 719.6 623.1 718.2Z" fill="#FFFEFE"/>
<path d="M695.2 718.1C688.3 715.7 683.5 711 680.9 704.1C679 699.2 678.7 696.3 678.7 681.5C678.6 660.2 679.9 654.8 686.8 647.9C692.1 642.6 696.4 641 705.6 641C713 641 717.8 642.8 722.3 647.4C727.2 652.3 729.1 658.6 729.7 671.8L730.3 683H710.5H690.7L691.3 690.5C692.4 702.8 695.4 707.4 703.2 708.6C710.2 709.8 717 704.1 717 697.1C717 695.2 717.6 695 722.9 695C726.2 695 729.2 695.5 729.5 696C729.9 696.6 729.4 699.5 728.5 702.6C724.4 716.7 710.2 723.3 695.2 718.1ZM715 668.4C715 664.7 712.5 658.7 710.2 656.9C706.8 654.3 702.7 654.5 699.1 657.6C696.4 659.8 694 665.1 694 668.8C694 669.7 696.8 670 704.5 670C713.5 670 715 669.8 715 668.4Z" fill="#FFFEFE"/>
<path d="M854.9 719.1C841.9 714.9 837.1 706.4 836.3 686C835 655.2 842.1 642.1 860.7 641.1C864.8 640.9 870.1 641.3 872.5 642C878.5 643.7 884.3 648.9 886.9 654.9C891.6 665.9 891.8 694.9 887.2 705.2C883.2 714.2 875.4 719.1 864.5 719.6C860.7 719.8 856.3 719.6 854.9 719.1ZM868.9 703.4C873.7 699.4 875.3 692.4 874.8 677.6C874.4 664 872.8 659 867.9 656.5C861.8 653.3 856.5 655.8 853.5 663.2C852.1 666.5 851.7 670.4 851.8 680.5C851.8 695.6 853.3 701 858.4 704.1C862.6 706.7 865.3 706.5 868.9 703.4Z" fill="#FFFEFE"/>
<path d="M1047.7 718.5C1039.2 715.5 1035.5 708.6 1036.2 696.6C1036.5 690.2 1037 688.5 1039.6 684.8C1044.8 677.4 1053.1 673.5 1068.3 671.5L1073 670.9V665.8C1073 663.1 1072.3 659.3 1071.4 657.5C1068.9 652.2 1060.7 650.3 1054.9 653.7C1052.4 655.2 1051.4 656.8 1049.6 662.3C1049.2 663.7 1047.9 664 1043.1 664H1037.1L1037.7 660.3C1039.6 648.3 1048.8 641 1062.2 641C1072.4 641 1079.8 645.2 1083.3 652.9C1085.2 657.1 1085.5 660.1 1086.1 685C1086.5 700.1 1087.1 713.7 1087.5 715.3L1088.2 718H1081.7C1074.7 718 1074 717.4 1074 712.2V709.6L1070.3 713.2C1063.6 719.7 1055.9 721.5 1047.7 718.5ZM1064.3 702.8C1068.2 700 1070 695.9 1070 689.5C1070 686.5 1069.9 684 1069.8 684C1067.3 684.1 1058.4 687.3 1056.2 688.9C1050.1 693.2 1049.6 700.6 1055.2 703.9C1058.5 706 1059.9 705.8 1064.3 702.8Z" fill="#FFFEFE"/>
<path d="M1126.2 718.7C1124.4 718.1 1121.5 716.4 1119.8 714.8C1118.2 713.3 1116.6 712 1116.4 712C1116.2 712 1116 713.4 1116 715V718H1110H1104L1104.2 665.8L1104.5 613.5L1110.8 613.2L1117 612.9V631.6V650.3L1119.2 647.5C1124 641.4 1135.5 639.2 1143.7 642.9C1148.7 645.2 1152.2 650.2 1154.6 658.5C1156.9 666.2 1157.1 690.4 1155.1 699.9C1151.7 715.3 1139.8 723.1 1126.2 718.7ZM1135.4 703.1C1139.8 699.2 1140.5 696.2 1140.5 680.5C1140.5 663.2 1139.3 659.1 1133.3 656.2C1130.2 654.7 1129.6 654.7 1127.2 656.1C1125.7 656.9 1123.5 659.3 1122.3 661.5C1120.2 665.2 1120 666.8 1120 680.8C1120 697.9 1120.7 700.7 1126.3 704C1129.7 706.1 1132.3 705.9 1135.4 703.1Z" fill="#FFFEFE"/>
<path d="M1185.5 718.7C1179.2 716.6 1177.1 715.2 1174 710.9C1171.5 707.3 1168.1 696.5 1169.2 695.4C1169.5 695.2 1172.2 694.7 1175.2 694.4L1180.8 693.8L1182 698.8C1183.7 706.3 1186.7 708.5 1194.6 708.5C1200.1 708.5 1201.3 708.1 1203.6 705.9C1205.1 704.3 1206.4 701.7 1206.7 699.4C1207.1 696 1206.8 694.9 1204.4 692.1C1202.9 690.3 1199.6 687.9 1197.1 686.8C1181.4 680.1 1175.8 676.4 1173.1 670.8C1172 668.4 1171 664.6 1171 662.3C1171 649.3 1180.1 641 1194.4 641C1207.9 641.1 1216 647.5 1217.7 659.5L1218.3 664H1213.1C1210.3 664 1207.7 664.1 1207.3 664.3C1206.9 664.4 1206.4 663.6 1206.2 662.5C1205 655.2 1201.2 652 1193.7 652C1187.5 652 1184 655.3 1184 661.1C1184 666.7 1188 670.4 1198.7 674.8C1214 681 1219 686.7 1219 698C1219 707 1215.3 713.2 1207.6 717.2C1202.7 719.7 1191 720.5 1185.5 718.7Z" fill="#FFFEFE"/>
<path d="M807 665.5V613H813.5H820V665.5V718H813.5H807V665.5Z" fill="#FFFEFE"/>
<path d="M907 680V641.9L912.8 642.2L918.5 642.5L919 646.8L919.5 651.2L921.8 648C925 643.7 931.2 641 938 641C945.1 641 950.6 644 953.4 649.5C955.4 653.3 955.5 655.3 955.8 685.8L956.1 718H950.1H944.1L943.8 688.3C943.5 655 943.4 654.8 936.7 652.8C931.3 651.2 925.4 653.3 922.3 657.9C920 661.2 920 661.8 920 689.6V718H913.5H907V680Z" fill="#FFFEFE"/>
<path d="M977.2 666.3L977.5 614.5L983.7 614.2L990 613.9L990.2 660.2L990.5 706.5L1009.3 706.8L1028 707V712.5V718H1002.5H977L977.2 666.3Z" fill="#FFFEFE"/>
</svg>
