<svg width="5915" height="1393" viewBox="0 0 5915 1393" fill="none" xmlns="http://www.w3.org/2000/svg">
<rect width="5915" height="1393" fill="#F5F5F5"/>
<g filter="url(#filter0_d_0_1)">
<rect width="1823" height="1385" transform="translate(4)" fill="#010101"/>
<path d="M747.2 739.8L747.5 734.5L752.2 734C758.3 733.3 760.6 731 763 723.3L764.9 717L762.1 707.3C753.2 676.7 749.5 664.4 746.4 654.6C744.5 648.6 743 643.3 743 642.8C743 642.4 746.1 642 749.9 642H756.8L763.8 670.3C767.7 685.8 770.9 698.3 771 698C771.5 694.8 784.3 645.9 785 644.3C785.8 642.3 786.7 642 791.8 642C795 642 797.9 642.2 798.2 642.6C798.5 642.9 797.4 647.5 795.8 652.8C794.2 658.1 788.7 677.2 783.5 695.2C778.3 713.1 773 730 771.6 732.7C767.1 741.7 761.8 745 752.4 745H746.9L747.2 739.8Z" fill="#FFFEFE"/>
<path d="M627.1 718.2C624.2 717.1 620.6 715.4 619.1 714.3C615.4 711.5 610.3 702.7 609 696.6C607.3 688.8 606.6 661.1 607.8 646.7C608.7 635.8 609.4 632.8 611.9 627.4C614.3 622.3 615.8 620.4 619.7 618C626.3 613.8 631.1 612.7 641 613.2C648 613.5 650.4 614.1 654.7 616.4C663.1 621 667.4 629 668.1 641.6L668.5 647.5H662H655.5L654.8 641.2C653.5 629 648.7 624 638.5 624C631.4 624 627 626.6 624 632.6C621.5 637.5 621.5 637.6 621.5 666C621.5 694.4 621.5 694.5 624 699.4C627.6 706.6 630.4 708.3 638.5 708.3C649.2 708.3 653.1 704.1 655.1 690.7L656.3 682.9L662.4 683.2L668.5 683.5L668.2 689.5C667.4 708.6 658.1 718.8 640.6 719.7C634.4 720 631.3 719.6 627.1 718.2Z" fill="#FFFEFE"/>
<path d="M699.2 718.1C692.3 715.7 687.5 711 684.9 704.1C683 699.2 682.7 696.3 682.7 681.5C682.6 660.2 683.9 654.8 690.8 647.9C696.1 642.6 700.4 641 709.6 641C717 641 721.8 642.8 726.3 647.4C731.2 652.3 733.1 658.6 733.7 671.8L734.3 683H714.5H694.7L695.3 690.5C696.4 702.8 699.4 707.4 707.2 708.6C714.2 709.8 721 704.1 721 697.1C721 695.2 721.6 695 726.9 695C730.2 695 733.2 695.5 733.5 696C733.9 696.6 733.4 699.5 732.5 702.6C728.4 716.7 714.2 723.3 699.2 718.1ZM719 668.4C719 664.7 716.5 658.7 714.2 656.9C710.8 654.3 706.7 654.5 703.1 657.6C700.4 659.8 698 665.1 698 668.8C698 669.7 700.8 670 708.5 670C717.5 670 719 669.8 719 668.4Z" fill="#FFFEFE"/>
<path d="M858.9 719.1C845.9 714.9 841.1 706.4 840.3 686C839 655.2 846.1 642.1 864.7 641.1C868.8 640.9 874.1 641.3 876.5 642C882.5 643.7 888.3 648.9 890.9 654.9C895.6 665.9 895.8 694.9 891.2 705.2C887.2 714.2 879.4 719.1 868.5 719.6C864.7 719.8 860.3 719.6 858.9 719.1ZM872.9 703.4C877.7 699.4 879.3 692.4 878.8 677.6C878.4 664 876.8 659 871.9 656.5C865.8 653.3 860.5 655.8 857.5 663.2C856.1 666.5 855.7 670.4 855.8 680.5C855.8 695.6 857.3 701 862.4 704.1C866.6 706.7 869.3 706.5 872.9 703.4Z" fill="#FFFEFE"/>
<path d="M1051.7 718.5C1043.2 715.5 1039.5 708.6 1040.2 696.6C1040.5 690.2 1041 688.5 1043.6 684.8C1048.8 677.4 1057.1 673.5 1072.3 671.5L1077 670.9V665.8C1077 663.1 1076.3 659.3 1075.4 657.5C1072.9 652.2 1064.7 650.3 1058.9 653.7C1056.4 655.2 1055.4 656.8 1053.6 662.3C1053.2 663.7 1051.9 664 1047.1 664H1041.1L1041.7 660.3C1043.6 648.3 1052.8 641 1066.2 641C1076.4 641 1083.8 645.2 1087.3 652.9C1089.2 657.1 1089.5 660.1 1090.1 685C1090.5 700.1 1091.1 713.7 1091.5 715.3L1092.2 718H1085.7C1078.7 718 1078 717.4 1078 712.2V709.6L1074.3 713.2C1067.6 719.7 1059.9 721.5 1051.7 718.5ZM1068.3 702.8C1072.2 700 1074 695.9 1074 689.5C1074 686.5 1073.9 684 1073.8 684C1071.3 684.1 1062.4 687.3 1060.2 688.9C1054.1 693.2 1053.6 700.6 1059.2 703.9C1062.5 706 1063.9 705.8 1068.3 702.8Z" fill="#FFFEFE"/>
<path d="M1130.2 718.7C1128.4 718.1 1125.5 716.4 1123.8 714.8C1122.2 713.3 1120.6 712 1120.4 712C1120.2 712 1120 713.4 1120 715V718H1114H1108L1108.2 665.8L1108.5 613.5L1114.8 613.2L1121 612.9V631.6V650.3L1123.2 647.5C1128 641.4 1139.5 639.2 1147.7 642.9C1152.7 645.2 1156.2 650.2 1158.6 658.5C1160.9 666.2 1161.1 690.4 1159.1 699.9C1155.7 715.3 1143.8 723.1 1130.2 718.7ZM1139.4 703.1C1143.8 699.2 1144.5 696.2 1144.5 680.5C1144.5 663.2 1143.3 659.1 1137.3 656.2C1134.2 654.7 1133.6 654.7 1131.2 656.1C1129.7 656.9 1127.5 659.3 1126.3 661.5C1124.2 665.2 1124 666.8 1124 680.8C1124 697.9 1124.7 700.7 1130.3 704C1133.7 706.1 1136.3 705.9 1139.4 703.1Z" fill="#FFFEFE"/>
<path d="M1189.5 718.7C1183.2 716.6 1181.1 715.2 1178 710.9C1175.5 707.3 1172.1 696.5 1173.2 695.4C1173.5 695.2 1176.2 694.7 1179.2 694.4L1184.8 693.8L1186 698.8C1187.7 706.3 1190.7 708.5 1198.6 708.5C1204.1 708.5 1205.3 708.1 1207.6 705.9C1209.1 704.3 1210.4 701.7 1210.7 699.4C1211.1 696 1210.8 694.9 1208.4 692.1C1206.9 690.3 1203.6 687.9 1201.1 686.8C1185.4 680.1 1179.8 676.4 1177.1 670.8C1176 668.4 1175 664.6 1175 662.3C1175 649.3 1184.1 641 1198.4 641C1211.9 641.1 1220 647.5 1221.7 659.5L1222.3 664H1217.1C1214.3 664 1211.7 664.1 1211.3 664.3C1210.9 664.4 1210.4 663.6 1210.2 662.5C1209 655.2 1205.2 652 1197.7 652C1191.5 652 1188 655.3 1188 661.1C1188 666.7 1192 670.4 1202.7 674.8C1218 681 1223 686.7 1223 698C1223 707 1219.3 713.2 1211.6 717.2C1206.7 719.7 1195 720.5 1189.5 718.7Z" fill="#FFFEFE"/>
<path d="M811 665.5V613H817.5H824V665.5V718H817.5H811V665.5Z" fill="#FFFEFE"/>
<path d="M911 680V641.9L916.8 642.2L922.5 642.5L923 646.8L923.5 651.2L925.8 648C929 643.7 935.2 641 942 641C949.1 641 954.6 644 957.4 649.5C959.4 653.3 959.5 655.3 959.8 685.8L960.1 718H954.1H948.1L947.8 688.3C947.5 655 947.4 654.8 940.7 652.8C935.3 651.2 929.4 653.3 926.3 657.9C924 661.2 924 661.8 924 689.6V718H917.5H911V680Z" fill="#FFFEFE"/>
<path d="M981.2 666.3L981.5 614.5L987.7 614.2L994 613.9L994.2 660.2L994.5 706.5L1013.3 706.8L1032 707V712.5V718H1006.5H981L981.2 666.3Z" fill="#FFFEFE"/>
<rect width="1823" height="1385" transform="translate(2078)" fill="white"/>
<path d="M2821 729.9L2821.3 724.6L2826 724.1C2832.1 723.4 2834.4 721.1 2836.8 713.4L2838.7 707.1L2835.9 697.4C2827 666.8 2823.3 654.5 2820.2 644.7C2818.3 638.7 2816.8 633.4 2816.8 632.9C2816.8 632.5 2819.9 632.1 2823.7 632.1H2830.6L2837.6 660.4C2841.5 675.9 2844.7 688.4 2844.8 688.1C2845.3 684.9 2858.1 636 2858.8 634.4C2859.6 632.4 2860.5 632.1 2865.6 632.1C2868.8 632.1 2871.7 632.3 2872 632.7C2872.3 633 2871.2 637.6 2869.6 642.9C2868 648.2 2862.5 667.3 2857.3 685.3C2852.1 703.2 2846.8 720.1 2845.4 722.8C2840.9 731.8 2835.6 735.1 2826.2 735.1H2820.7L2821 729.9Z" fill="#010101"/>
<path d="M2700.9 708.3C2698 707.2 2694.4 705.5 2692.9 704.4C2689.2 701.6 2684.1 692.8 2682.8 686.7C2681.1 678.9 2680.4 651.2 2681.6 636.8C2682.5 625.9 2683.2 622.9 2685.7 617.5C2688.1 612.4 2689.6 610.5 2693.5 608.1C2700.1 603.9 2704.9 602.8 2714.8 603.3C2721.8 603.6 2724.2 604.2 2728.5 606.5C2736.9 611.1 2741.2 619.1 2741.9 631.7L2742.3 637.6H2735.8H2729.3L2728.6 631.3C2727.3 619.1 2722.5 614.1 2712.3 614.1C2705.2 614.1 2700.8 616.7 2697.8 622.7C2695.3 627.6 2695.3 627.7 2695.3 656.1C2695.3 684.5 2695.3 684.6 2697.8 689.5C2701.4 696.7 2704.2 698.4 2712.3 698.4C2723 698.4 2726.9 694.2 2728.9 680.8L2730.1 673L2736.2 673.3L2742.3 673.6L2742 679.6C2741.2 698.7 2731.9 708.9 2714.4 709.8C2708.2 710.1 2705.1 709.7 2700.9 708.3Z" fill="#010101"/>
<path d="M2773 708.2C2766.1 705.8 2761.3 701.1 2758.7 694.2C2756.8 689.3 2756.5 686.4 2756.5 671.6C2756.4 650.3 2757.7 644.9 2764.6 638C2769.9 632.7 2774.2 631.1 2783.4 631.1C2790.8 631.1 2795.6 632.9 2800.1 637.5C2805 642.4 2806.9 648.7 2807.5 661.9L2808.1 673.1H2788.3H2768.5L2769.1 680.6C2770.2 692.9 2773.2 697.5 2781 698.7C2788 699.9 2794.8 694.2 2794.8 687.2C2794.8 685.3 2795.4 685.1 2800.7 685.1C2804 685.1 2807 685.6 2807.3 686.1C2807.7 686.7 2807.2 689.6 2806.3 692.7C2802.2 706.8 2788 713.4 2773 708.2ZM2792.8 658.5C2792.8 654.8 2790.3 648.8 2788 647C2784.6 644.4 2780.5 644.6 2776.9 647.7C2774.2 649.9 2771.8 655.2 2771.8 658.9C2771.8 659.8 2774.6 660.1 2782.3 660.1C2791.3 660.1 2792.8 659.9 2792.8 658.5Z" fill="#010101"/>
<path d="M2932.7 709.2C2919.7 705 2914.9 696.5 2914.1 676.1C2912.8 645.3 2919.9 632.2 2938.5 631.2C2942.6 631 2947.9 631.4 2950.3 632.1C2956.3 633.8 2962.1 639 2964.7 645C2969.4 656 2969.6 685 2965 695.3C2961 704.3 2953.2 709.2 2942.3 709.7C2938.5 709.9 2934.1 709.7 2932.7 709.2ZM2946.7 693.5C2951.5 689.5 2953.1 682.5 2952.6 667.7C2952.2 654.1 2950.6 649.1 2945.7 646.6C2939.6 643.4 2934.3 645.9 2931.3 653.3C2929.9 656.6 2929.5 660.5 2929.6 670.6C2929.6 685.7 2931.1 691.1 2936.2 694.2C2940.4 696.8 2943.1 696.6 2946.7 693.5Z" fill="#010101"/>
<path d="M3125.5 708.6C3117 705.6 3113.3 698.7 3114 686.7C3114.3 680.3 3114.8 678.6 3117.4 674.9C3122.6 667.5 3130.9 663.6 3146.1 661.6L3150.8 661V655.9C3150.8 653.2 3150.1 649.4 3149.2 647.6C3146.7 642.3 3138.5 640.4 3132.7 643.8C3130.2 645.3 3129.2 646.9 3127.4 652.4C3127 653.8 3125.7 654.1 3120.9 654.1H3114.9L3115.5 650.4C3117.4 638.4 3126.6 631.1 3140 631.1C3150.2 631.1 3157.6 635.3 3161.1 643C3163 647.2 3163.3 650.2 3163.9 675.1C3164.3 690.2 3164.9 703.8 3165.3 705.4L3166 708.1H3159.5C3152.5 708.1 3151.8 707.5 3151.8 702.3V699.7L3148.1 703.3C3141.4 709.8 3133.7 711.6 3125.5 708.6ZM3142.1 692.9C3146 690.1 3147.8 686 3147.8 679.6C3147.8 676.6 3147.7 674.1 3147.6 674.1C3145.1 674.2 3136.2 677.4 3134 679C3127.9 683.3 3127.4 690.7 3133 694C3136.3 696.1 3137.7 695.9 3142.1 692.9Z" fill="#010101"/>
<path d="M3204 708.8C3202.2 708.2 3199.3 706.5 3197.6 704.9C3196 703.4 3194.4 702.1 3194.2 702.1C3194 702.1 3193.8 703.5 3193.8 705.1V708.1H3187.8H3181.8L3182 655.9L3182.3 603.6L3188.6 603.3L3194.8 603V621.7V640.4L3197 637.6C3201.8 631.5 3213.3 629.3 3221.5 633C3226.5 635.3 3230 640.3 3232.4 648.6C3234.7 656.3 3234.9 680.5 3232.9 690C3229.5 705.4 3217.6 713.2 3204 708.8ZM3213.2 693.2C3217.6 689.3 3218.3 686.3 3218.3 670.6C3218.3 653.3 3217.1 649.2 3211.1 646.3C3208 644.8 3207.4 644.8 3205 646.2C3203.5 647 3201.3 649.4 3200.1 651.6C3198 655.3 3197.8 656.9 3197.8 670.9C3197.8 688 3198.5 690.8 3204.1 694.1C3207.5 696.2 3210.1 696 3213.2 693.2Z" fill="#010101"/>
<path d="M3263.3 708.8C3257 706.7 3254.9 705.3 3251.8 701C3249.3 697.4 3245.9 686.6 3247 685.5C3247.3 685.3 3250 684.8 3253 684.5L3258.6 683.9L3259.8 688.9C3261.5 696.4 3264.5 698.6 3272.4 698.6C3277.9 698.6 3279.1 698.2 3281.4 696C3282.9 694.4 3284.2 691.8 3284.5 689.5C3284.9 686.1 3284.6 685 3282.2 682.2C3280.7 680.4 3277.4 678 3274.9 676.9C3259.2 670.2 3253.6 666.5 3250.9 660.9C3249.8 658.5 3248.8 654.7 3248.8 652.4C3248.8 639.4 3257.9 631.1 3272.2 631.1C3285.7 631.2 3293.8 637.6 3295.5 649.6L3296.1 654.1H3290.9C3288.1 654.1 3285.5 654.2 3285.1 654.4C3284.7 654.5 3284.2 653.7 3284 652.6C3282.8 645.3 3279 642.1 3271.5 642.1C3265.3 642.1 3261.8 645.4 3261.8 651.2C3261.8 656.8 3265.8 660.5 3276.5 664.9C3291.8 671.1 3296.8 676.8 3296.8 688.1C3296.8 697.1 3293.1 703.3 3285.4 707.3C3280.5 709.8 3268.8 710.6 3263.3 708.8Z" fill="#010101"/>
<path d="M2884.8 655.6V603.1H2891.3H2897.8V655.6V708.1H2891.3H2884.8V655.6Z" fill="#010101"/>
<path d="M2984.8 670.1V632L2990.6 632.3L2996.3 632.6L2996.8 636.9L2997.3 641.3L2999.6 638.1C3002.8 633.8 3009 631.1 3015.8 631.1C3022.9 631.1 3028.4 634.1 3031.2 639.6C3033.2 643.4 3033.3 645.4 3033.6 675.9L3033.9 708.1H3027.9H3021.9L3021.6 678.4C3021.3 645.1 3021.2 644.9 3014.5 642.9C3009.1 641.3 3003.2 643.4 3000.1 648C2997.8 651.3 2997.8 651.9 2997.8 679.7V708.1H2991.3H2984.8V670.1Z" fill="#010101"/>
<path d="M3055 656.4L3055.3 604.6L3061.5 604.3L3067.8 604L3068 650.3L3068.3 696.6L3087.1 696.9L3105.8 697.1V702.6V708.1H3080.3H3054.8L3055 656.4Z" fill="#010101"/>
<rect width="1823" height="1385" transform="translate(4088)" fill="#646363" fill-opacity="0.41"/>
<path d="M4831 729.9L4831.3 724.6L4836 724.1C4842.1 723.4 4844.4 721.1 4846.8 713.4L4848.7 707.1L4845.9 697.4C4837 666.8 4833.3 654.5 4830.2 644.7C4828.3 638.7 4826.8 633.4 4826.8 632.9C4826.8 632.5 4829.9 632.1 4833.7 632.1H4840.6L4847.6 660.4C4851.5 675.9 4854.7 688.4 4854.8 688.1C4855.3 684.9 4868.1 636 4868.8 634.4C4869.6 632.4 4870.5 632.1 4875.6 632.1C4878.8 632.1 4881.7 632.3 4882 632.7C4882.3 633 4881.2 637.6 4879.6 642.9C4878 648.2 4872.5 667.3 4867.3 685.3C4862.1 703.2 4856.8 720.1 4855.4 722.8C4850.9 731.8 4845.6 735.1 4836.2 735.1H4830.7L4831 729.9Z" fill="#010101"/>
<path d="M4710.9 708.3C4708 707.2 4704.4 705.5 4702.9 704.4C4699.2 701.6 4694.1 692.8 4692.8 686.7C4691.1 678.9 4690.4 651.2 4691.6 636.8C4692.5 625.9 4693.2 622.9 4695.7 617.5C4698.1 612.4 4699.6 610.5 4703.5 608.1C4710.1 603.9 4714.9 602.8 4724.8 603.3C4731.8 603.6 4734.2 604.2 4738.5 606.5C4746.9 611.1 4751.2 619.1 4751.9 631.7L4752.3 637.6H4745.8H4739.3L4738.6 631.3C4737.3 619.1 4732.5 614.1 4722.3 614.1C4715.2 614.1 4710.8 616.7 4707.8 622.7C4705.3 627.6 4705.3 627.7 4705.3 656.1C4705.3 684.5 4705.3 684.6 4707.8 689.5C4711.4 696.7 4714.2 698.4 4722.3 698.4C4733 698.4 4736.9 694.2 4738.9 680.8L4740.1 673L4746.2 673.3L4752.3 673.6L4752 679.6C4751.2 698.7 4741.9 708.9 4724.4 709.8C4718.2 710.1 4715.1 709.7 4710.9 708.3Z" fill="#010101"/>
<path d="M4783 708.2C4776.1 705.8 4771.3 701.1 4768.7 694.2C4766.8 689.3 4766.5 686.4 4766.5 671.6C4766.4 650.3 4767.7 644.9 4774.6 638C4779.9 632.7 4784.2 631.1 4793.4 631.1C4800.8 631.1 4805.6 632.9 4810.1 637.5C4815 642.4 4816.9 648.7 4817.5 661.9L4818.1 673.1H4798.3H4778.5L4779.1 680.6C4780.2 692.9 4783.2 697.5 4791 698.7C4798 699.9 4804.8 694.2 4804.8 687.2C4804.8 685.3 4805.4 685.1 4810.7 685.1C4814 685.1 4817 685.6 4817.3 686.1C4817.7 686.7 4817.2 689.6 4816.3 692.7C4812.2 706.8 4798 713.4 4783 708.2ZM4802.8 658.5C4802.8 654.8 4800.3 648.8 4798 647C4794.6 644.4 4790.5 644.6 4786.9 647.7C4784.2 649.9 4781.8 655.2 4781.8 658.9C4781.8 659.8 4784.6 660.1 4792.3 660.1C4801.3 660.1 4802.8 659.9 4802.8 658.5Z" fill="#010101"/>
<path d="M4942.7 709.2C4929.7 705 4924.9 696.5 4924.1 676.1C4922.8 645.3 4929.9 632.2 4948.5 631.2C4952.6 631 4957.9 631.4 4960.3 632.1C4966.3 633.8 4972.1 639 4974.7 645C4979.4 656 4979.6 685 4975 695.3C4971 704.3 4963.2 709.2 4952.3 709.7C4948.5 709.9 4944.1 709.7 4942.7 709.2ZM4956.7 693.5C4961.5 689.5 4963.1 682.5 4962.6 667.7C4962.2 654.1 4960.6 649.1 4955.7 646.6C4949.6 643.4 4944.3 645.9 4941.3 653.3C4939.9 656.6 4939.5 660.5 4939.6 670.6C4939.6 685.7 4941.1 691.1 4946.2 694.2C4950.4 696.8 4953.1 696.6 4956.7 693.5Z" fill="#010101"/>
<path d="M5135.5 708.6C5127 705.6 5123.3 698.7 5124 686.7C5124.3 680.3 5124.8 678.6 5127.4 674.9C5132.6 667.5 5140.9 663.6 5156.1 661.6L5160.8 661V655.9C5160.8 653.2 5160.1 649.4 5159.2 647.6C5156.7 642.3 5148.5 640.4 5142.7 643.8C5140.2 645.3 5139.2 646.9 5137.4 652.4C5137 653.8 5135.7 654.1 5130.9 654.1H5124.9L5125.5 650.4C5127.4 638.4 5136.6 631.1 5150 631.1C5160.2 631.1 5167.6 635.3 5171.1 643C5173 647.2 5173.3 650.2 5173.9 675.1C5174.3 690.2 5174.9 703.8 5175.3 705.4L5176 708.1H5169.5C5162.5 708.1 5161.8 707.5 5161.8 702.3V699.7L5158.1 703.3C5151.4 709.8 5143.7 711.6 5135.5 708.6ZM5152.1 692.9C5156 690.1 5157.8 686 5157.8 679.6C5157.8 676.6 5157.7 674.1 5157.6 674.1C5155.1 674.2 5146.2 677.4 5144 679C5137.9 683.3 5137.4 690.7 5143 694C5146.3 696.1 5147.7 695.9 5152.1 692.9Z" fill="#010101"/>
<path d="M5214 708.8C5212.2 708.2 5209.3 706.5 5207.6 704.9C5206 703.4 5204.4 702.1 5204.2 702.1C5204 702.1 5203.8 703.5 5203.8 705.1V708.1H5197.8H5191.8L5192 655.9L5192.3 603.6L5198.6 603.3L5204.8 603V621.7V640.4L5207 637.6C5211.8 631.5 5223.3 629.3 5231.5 633C5236.5 635.3 5240 640.3 5242.4 648.6C5244.7 656.3 5244.9 680.5 5242.9 690C5239.5 705.4 5227.6 713.2 5214 708.8ZM5223.2 693.2C5227.6 689.3 5228.3 686.3 5228.3 670.6C5228.3 653.3 5227.1 649.2 5221.1 646.3C5218 644.8 5217.4 644.8 5215 646.2C5213.5 647 5211.3 649.4 5210.1 651.6C5208 655.3 5207.8 656.9 5207.8 670.9C5207.8 688 5208.5 690.8 5214.1 694.1C5217.5 696.2 5220.1 696 5223.2 693.2Z" fill="#010101"/>
<path d="M5273.3 708.8C5267 706.7 5264.9 705.3 5261.8 701C5259.3 697.4 5255.9 686.6 5257 685.5C5257.3 685.3 5260 684.8 5263 684.5L5268.6 683.9L5269.8 688.9C5271.5 696.4 5274.5 698.6 5282.4 698.6C5287.9 698.6 5289.1 698.2 5291.4 696C5292.9 694.4 5294.2 691.8 5294.5 689.5C5294.9 686.1 5294.6 685 5292.2 682.2C5290.7 680.4 5287.4 678 5284.9 676.9C5269.2 670.2 5263.6 666.5 5260.9 660.9C5259.8 658.5 5258.8 654.7 5258.8 652.4C5258.8 639.4 5267.9 631.1 5282.2 631.1C5295.7 631.2 5303.8 637.6 5305.5 649.6L5306.1 654.1H5300.9C5298.1 654.1 5295.5 654.2 5295.1 654.4C5294.7 654.5 5294.2 653.7 5294 652.6C5292.8 645.3 5289 642.1 5281.5 642.1C5275.3 642.1 5271.8 645.4 5271.8 651.2C5271.8 656.8 5275.8 660.5 5286.5 664.9C5301.8 671.1 5306.8 676.8 5306.8 688.1C5306.8 697.1 5303.1 703.3 5295.4 707.3C5290.5 709.8 5278.8 710.6 5273.3 708.8Z" fill="#010101"/>
<path d="M4894.8 655.6V603.1H4901.3H4907.8V655.6V708.1H4901.3H4894.8V655.6Z" fill="#010101"/>
<path d="M4994.8 670.1V632L5000.6 632.3L5006.3 632.6L5006.8 636.9L5007.3 641.3L5009.6 638.1C5012.8 633.8 5019 631.1 5025.8 631.1C5032.9 631.1 5038.4 634.1 5041.2 639.6C5043.2 643.4 5043.3 645.4 5043.6 675.9L5043.9 708.1H5037.9H5031.9L5031.6 678.4C5031.3 645.1 5031.2 644.9 5024.5 642.9C5019.1 641.3 5013.2 643.4 5010.1 648C5007.8 651.3 5007.8 651.9 5007.8 679.7V708.1H5001.3H4994.8V670.1Z" fill="#010101"/>
<path d="M5065 656.4L5065.3 604.6L5071.5 604.3L5077.8 604L5078 650.3L5078.3 696.6L5097.1 696.9L5115.8 697.1V702.6V708.1H5090.3H5064.8L5065 656.4Z" fill="#010101"/>
</g>
<defs>
<filter id="filter0_d_0_1" x="0" y="0" width="5915" height="1393" filterUnits="userSpaceOnUse" color-interpolation-filters="sRGB">
<feFlood flood-opacity="0" result="BackgroundImageFix"/>
<feColorMatrix in="SourceAlpha" type="matrix" values="0 0 0 0 0 0 0 0 0 0 0 0 0 0 0 0 0 0 127 0" result="hardAlpha"/>
<feOffset dy="4"/>
<feGaussianBlur stdDeviation="2"/>
<feComposite in2="hardAlpha" operator="out"/>
<feColorMatrix type="matrix" values="0 0 0 0 0 0 0 0 0 0 0 0 0 0 0 0 0 0 0.25 0"/>
<feBlend mode="normal" in2="BackgroundImageFix" result="effect1_dropShadow_0_1"/>
<feBlend mode="normal" in="SourceGraphic" in2="effect1_dropShadow_0_1" result="shape"/>
</filter>
</defs>
</svg>
